<?xml version='1.0' encoding='utf-8'?>
<svg xmlns="http://www.w3.org/2000/svg" width="297mm" height="210mm" style="shape-rendering:geometricPrecision; text-rendering:geometricPrecision; image-rendering:optimizeQuality; fill-rule:evenodd; clip-rule:evenodd" viewBox="0 0 297 210"> <defs> <style type="text/css">  .fil0 {fill:black}  </style> </defs> <g id="Warstwa_x0020_1"> <metadata id="CorelCorpID_0Corel-Layer"/> <path class="fil0" d="M185.886 46.4824c-3.1912,-1.2396 -6.4526,-1.4026 -9.7993,-0.267 1.5453,-1.0149 3.4262,-1.7571 5.7974,-2.1011 0.0706,-1.2304 1.5714,-2.4737 2.933,-2.878 -1.1802,-0.6301 -3.3868,0.1603 -4.5672,0.777 1.3371,-0.9964 3.1973,-1.9731 5.1539,-1.7298 -0.9187,-0.8958 -1.2371,-1.8109 -1.691,-2.9003 2.1272,2.1589 4.4228,4.0393 7.8984,3.9686 -1.1818,-1.8403 -2.6426,-3.3892 -4.4745,-4.5523 0.0962,-3.0734 1.3152,-4.6273 3.3095,-5.1317 3.3238,-0.8408 7.9489,5.0871 14.8219,4.0423 -1.865,-1.2568 -4.0359,-2.1694 -5.9807,-3.2422 -1.1669,-0.6436 -2.067,-1.5441 -3.2911,-2.0551 -2.2339,-0.9326 -4.5819,-1.6039 -7.1087,-1.8619 1.6535,-0.2984 3.2094,-0.5314 4.0854,-0.3112 0.2653,-1.1203 1.3476,-1.743 2.8014,-2.14 -1.0279,-0.6568 -2.3914,-0.1382 -3.7352,0.3113 2.3809,-2.2906 5.2521,-3.5039 9.4937,-1.712 -0.1003,-0.4507 -0.0939,-0.9371 -0.0389,-1.4396 -1.642,-0.5328 -2.0959,-1.3239 -1.3618,-2.3734 -1.2027,-0.3701 -2.7245,-0.1024 -4.2411,0.1556 1.5299,-0.8366 3.245,-1.2461 5.2916,-0.8949 0.4875,-3.7222 2.1711,-4.6118 5.6028,-1.3618 -0.1752,-5.9464 3.7551,-6.3474 5.8755,-5.9521 2.1205,0.3955 4.5516,3.261 6.8476,8.3255 1.0695,-2.8012 -0.8154,-5.6026 -2.7236,-8.4042 2.2861,2.7896 4.1542,5.6415 4.0076,8.7933 0.904,-1.9835 0.1867,-4.1653 -1.4396,-6.4588 1.8769,1.8055 2.5105,4.2168 2.3734,7.0035 0.7287,1.3302 1.6687,2.0361 2.9181,1.8287 -0.1276,-0.654 -0.377,-1.2236 -0.7247,-1.7247 -0.4197,-0.6048 -1.3435,-0.8073 -1.6487,-1.5436 -0.851,-2.8358 -0.1558,-5.1826 0.9727,-7.3926 -0.0818,3.2287 0.0278,6.2103 1.8287,7.0035 0.4155,0.1046 0.649,0.0268 0.7003,-0.2334 -0.3173,-2.2048 -0.4731,-4.3834 0.5059,-6.381 -0.1138,1.3414 -0.5038,2.8268 0.7392,3.4628 0.0202,-1.6535 0.6846,-2.9082 1.7898,-3.8908 -0.1684,2.2332 -0.3721,4.4819 1.712,5.7195 -0.3514,-0.8272 -0.2056,-1.4415 0.1665,-1.959 0.3403,0.8561 1.0682,1.4543 2.1837,1.7937 1.3035,-0.4748 1.2339,-1.1115 0.7799,-1.7937 0.6568,0.2984 1.3456,0.5322 2.2617,0.3119 1.6997,-1.5843 3.633,-2.5131 5.8493,-2.6516 -0.9114,0.5523 -1.6589,1.0391 -2.2265,1.4536 -0.6998,0.511 -1.2063,1.0545 -1.2526,1.6753 -0.0952,1.2703 1.939,2.0336 3.3231,-0.3993 0.2308,1.2207 1.5077,0.156 2.2617,0.234 -0.4353,-2.71 -0.023,-5.1373 1.0918,-7.3311 -0.3296,2.6519 -0.2851,5.0635 1.5598,6.3172 0.506,-3.0288 1.7686,-6.1278 4.0697,-8.5396 1.9976,-1.8588 2.6399,-1.8647 3.2054,0.2141 0.4506,2.5466 2.257,4.5704 2.7076,7.1557 1.9538,-0.0002 3.7636,-1.0798 6.0053,-0.234 2.7388,-1.8901 5.9715,-3.6827 6.9772,-6.571 0.3792,-1.7222 2.2304,-1.1009 1.7576,0.6438 -0.7138,3.9968 -1.7083,7.8296 -3.0416,11.4645 -0.0439,0.4285 0.5461,0.7311 1.0301,1.2073 0.427,0.4203 0.7466,1.0105 0.8405,1.4537 0.0804,0.379 -0.0728,1.236 -0.4178,1.6125 -0.3239,0.3536 -0.8379,0.2295 -0.8688,0.533 -0.0687,0.6732 0.0695,1.5119 -0.2563,2.0597 -0.3256,0.5476 -1.1164,0.8051 -1.1856,1.4787 1.706,1.8799 3.8189,3.8372 5.6525,5.7413 1.2957,1.3454 2.9852,2.3352 3.5469,4.1209 0.5309,1.6874 -0.2686,5.2318 0.0814,5.9697 1.0552,1.7639 1.5334,3.6429 2.5879,5.4071 0.6325,1.0586 1.8468,2.0014 2.4713,3.0625 0.4682,0.7955 0.039,2.2157 0.5002,3.014 1.1787,2.0401 3.2249,3.4675 4.3272,5.5327 1.2471,2.3366 2.4332,4.6946 3.5277,7.0826 4.8506,3.3401 5.1876,7.0089 0.078,11.0745 -0.219,2.5096 -0.8678,4.876 -4.5234,6.2392 -4.4472,1.6072 -8.2879,1.9735 -10.4507,-1.0918 -1.5077,-1.0424 -2.0429,-2.9021 -2.8116,-4.2947 -6.0031,-2.2748 -14.2244,-9.0634 -17.1538,-9.5095 -3.8957,-0.1799 -7.1382,-1.1403 -9.5289,-3.1181 -1.2524,-1.0358 -1.882,-2.7402 -3.0274,-3.979 -1.8628,2.8612 -4.1505,5.7413 -6.0392,8.6773 -2.1404,3.3272 -3.8579,6.7157 -5.4819,10.0276 -1.8341,3.7404 -3.8253,7.1855 -2.9982,11.1946 0.3303,1.6018 1.3485,3.1144 1.9629,5.1959 1.6046,8.2005 0.8497,16.34 -5.5373,24.3329 1.4464,2.1932 2.1701,4.0333 3.1047,6.0546 0.6393,1.3831 1.4905,2.5694 2.3563,3.7307 2.1313,2.8594 4.6787,5.2133 7.3293,7.3724 4.179,2.4303 6.6138,9.8997 1.8718,17.6257 -3.0606,7.739 -5.6716,15.6585 -7.1751,24.0209 -0.0185,0.8873 -0.2649,1.7236 -0.6901,2.5192 -0.7574,1.4175 -3.4452,1.7346 -5.0626,2.9586 -1.1069,0.8375 -0.9885,2.6172 -2.2802,3.413 -0.4441,2.6507 -1.6669,4.9117 -4.6014,6.3172 -0.9209,2.0366 -2.5261,3.655 -4.4842,5.0695 -6.4394,1.8341 -9.2863,-1.4939 -8.7741,-10.1388 -0.0986,-3.6759 2.7274,-5.8896 5.3813,-8.189 0.1899,-0.8966 0.6644,-1.5309 1.3272,-1.9909 0.6353,-0.4406 2.0065,-0.2071 2.8049,0.3851 1.5228,1.1301 3.5509,1.4912 4.3688,-1.9817 -0.4399,-2.1571 0.5475,-3.743 2.1837,-5.0693 4.2265,-5.1235 6.06,-11.3103 6.5512,-18.0937 0.8072,-2.2478 0.7555,-4.0037 0.0975,-5.4124 -2.0584,-4.4074 -10.2865,-2.3407 -16.2414,-7.4559 -3.1878,0.2718 -6.0967,-0.1475 -8.6076,-1.5544 -2.0802,-1.1657 -3.8872,-3.0091 -5.3526,-5.6987 -3.825,1.0456 -7.588,1.319 -11.3085,1.3259 0.4662,7.976 1.3792,15.8625 4.4454,23.3189 0.6951,1.798 1.2907,3.5459 1.199,4.9499 -0.076,1.1634 -0.9341,1.7424 -1.9789,2.6152 -0.194,2.2473 -0.2295,4.5541 -2.9636,5.8492 -2.3048,0.4823 -4.5656,1.0581 -6.7492,1.7964 -2.9925,1.0119 -5.8404,2.3293 -8.4589,4.1308 -4.0691,4.5056 -7.5172,4.0119 -10.4506,-0.6239 -1.6319,0.3666 -2.3321,-0.3844 -3.3835,-0.4503 -0.9279,-0.0581 -1.8024,0.2309 -2.5605,0.0804 -1.1072,-0.2196 -1.7384,-0.9194 -2.6349,-1.0339 -4.2102,-0.4541 -4.9479,-3.097 -4.3494,-5.2061 0.5279,-1.8607 2.3348,-6.2119 7.0011,-6.5704 1.703,-1.004 3.0549,-0.6663 4.0554,1.0139 1.9363,-3.2908 3.6263,-2.7004 5.1474,0.5459 5.4648,1.8514 9.9977,1.0177 12.8683,-4.6014 -2.3001,-2.0874 -1.8621,-4.3244 -2.7985,-6.4759 -0.6618,-1.5204 -1.3689,-3.0178 -2.2127,-4.4498 -2.3707,-4.0231 -3.6905,-8.5614 -5.4394,-12.8612 -0.5238,-1.5774 -1.3554,-1.838 -1.8969,-2.757 -0.6687,-1.1347 -1.1906,-2.2694 -1.5347,-3.4042 -3.693,-0.0059 -7.1455,-0.3868 -10.4268,-1.0331 -4.7964,-0.9446 -9.2284,-2.4564 -13.5161,-4.1922 -0.9902,3.1547 -2.1425,6.1844 -3.4751,9.0755 -1.2516,2.7158 -3.9464,3.4421 -4.2459,7.7703 -1.9321,3.7222 -2.2344,7.4578 -1.4123,11.2023 0.6613,3.0119 2.7513,5.9134 4.6061,8.9352 1.7422,2.8385 3.1952,5.7973 5.5411,8.6408 1.6475,1.3602 2.9384,2.8764 3.7191,4.6157 0.6471,1.4412 -0.2623,2.9579 0.8043,4.821 1.4166,2.1772 2.5866,4.478 3.5875,6.8631 1.5327,1.1739 0.8671,3.1174 1.1974,4.691 0.2737,1.3037 0.4563,2.6207 0.4404,3.9659 0.3499,2.2192 -0.2998,2.584 -1.4038,2.1057 -4.0503,-2.474 -8.6908,-4.0205 -14.1941,-4.2114 -1.2458,-1.5342 -1.6617,-3.2242 -1.2479,-5.0694 0.5835,-1.3931 1.9138,-2.7787 1.6613,-3.4875 -0.1515,-0.4253 -0.7219,-0.2041 -2.1292,-0.334 -0.6139,-2.4483 -1.3992,-4.7985 -2.3404,-7.0578 -0.9411,-2.2591 -2.4272,-4.1552 -3.2749,-6.5124 -0.3318,-0.4871 -1.703,-0.455 -2.2745,-0.9471 -0.3427,-0.2952 0.1745,-1.1531 -0.2262,-1.3791 -0.356,-0.2009 -1.2506,0.0156 -1.4638,-0.2181 -0.2388,-0.2616 0.898,-0.7681 0.7,-1.0588 -0.22,-0.3234 -1.0877,-0.2179 -1.2349,-0.5937 -0.3239,-0.8262 0.1486,-2.1889 -0.336,-2.9003 -2.0737,-3.5694 -4.655,-6.9354 -7.253,-10.2946 -3.4651,-3.1521 -3.6482,-6.233 -2.3397,-9.2808 3.1376,-5.9878 5.4126,-12.8372 7.0971,-20.2774 0.1834,-3.8301 -0.9489,-7.2646 -3.0776,-10.3987 -2.6515,-3.9042 -7.2382,-5.5923 -11.9745,-10.5026 -1.1752,3.2071 -2.487,6.3599 -3.9,9.4721 -0.9378,2.0651 -2.5043,3.8014 -3.5213,5.8349 -1.0171,2.0334 -1.4854,4.3645 -2.5614,6.3742 -0.6453,2.5282 0.6684,4.0826 0.7536,6.2219 0.0547,1.371 -0.2377,2.8912 -0.0681,4.2262 0.1107,0.8708 0.8415,1.549 0.9523,2.4202 -0.2791,1.3378 -0.2002,2.6292 0.1347,3.8869 0.4712,1.7685 2.3058,3.0435 3.5087,4.7167 1.3632,1.8967 2.159,4.1837 3.6877,6.0585 1.7247,2.4794 4.4117,3.7824 5.6581,6.4462 0.6993,1.4943 1.0191,3.2946 0.659,5.6423 0.6636,2.4438 2.4943,4.5763 3.0022,7.3315 1.8038,1.652 2.6221,4.043 1.5204,6.9406 0.9094,1.7938 1.0017,3.1984 1.055,5.0311 -0.0747,2.6959 -1.3474,4.1679 -2.9771,4.4155 -1.4382,0.2186 -3.2457,-0.485 -5.4861,-2.2715 -4.7387,-1.5055 -7.2856,-4.6127 -6.6291,-10.0607 0.1821,-1.6378 0.364,-3.2756 0.5459,-4.9134 0.1626,-2.1029 -0.9156,-3.3261 -1.399,-4.9173 -0.3757,-1.2378 -0.5437,-2.4788 -1.0438,-3.6464 -0.686,-1.6013 -1.4866,-3.1387 -2.3926,-4.6166 -1.4356,-3.0813 -2.7886,-5.4501 -4.6308,-7.8185 -1.6462,-2.1168 -4.2661,-3.4395 -5.6761,-5.8053 -0.2115,-0.3547 -0.3037,-0.8887 -0.5075,-1.2517 -0.3992,-0.7107 -1.016,-1.3119 -1.4054,-2.0232 -0.5693,-1.0391 -0.8963,-2.2033 -1.3504,-3.3786 -0.2814,-0.4019 -0.8138,-0.6165 -1.1845,-0.8207 -0.9115,-0.5024 -1.6653,-0.8291 -2.1699,-1.4914 -0.4446,-0.5838 -0.4287,-1.3829 -0.5989,-2.0746 -0.1701,-0.6917 -0.5269,-1.2763 -0.479,-2.0509 0.0405,-0.6538 0.1493,-1.3337 0.3089,-2.0305 0.6126,-2.6746 3.6961,-4.9343 4.2014,-8.9237 0.8676,-3.6024 0.7877,-7.0218 0.1345,-10.3299 -0.4548,-2.3034 -2.0049,-4.1648 -2.8896,-6.385 -1.3801,-3.464 -2.147,-7.363 -3.952,-10.6595 -0.7011,10.1169 -4.1242,16.9523 -12.4004,17.9377 -1.1773,2.8529 -3.1737,4.8583 -5.8493,6.1612 1.1239,-0.7874 2.0968,-1.6843 2.6517,-2.8857 -1.7972,0.5164 -3.4101,1.9417 -5.2167,2.6557 -0.8112,0.3206 -0.9409,-0.0268 -1.7913,0.1317 -0.528,0.0986 -1.5154,0.1984 -2.2009,0.4132 -0.8272,0.259 -1.3574,0.6422 -1.9618,0.8155 -0.5651,0.162 -1.2501,0.0162 -1.8175,0.2134 -0.8297,0.2881 -1.543,0.9148 -2.3646,1.0431 -0.7828,0.1222 -1.5037,-0.2558 -2.2831,-0.2107 -0.8837,0.0511 -1.8265,0.5309 -2.7195,0.7874 -3.0154,0.49 -5.8383,1.6072 -8.3788,2.9421 -1.5293,0.8038 -2.1277,2.8073 -3.3947,3.9955 -1.118,1.0483 -2.9076,1.2781 -4.18,2.1144 -1.3353,0.8776 -2.4007,2.0658 -3.3879,3.6603 0.3059,-1.4816 1.3974,-2.9999 2.4597,-4.2083 1.0773,-1.2257 2.8906,-1.4412 4.1978,-2.4426 1.1534,-0.8837 1.7977,-2.5642 2.8436,-3.4649 1.3384,-1.1528 3.5705,-1.4372 4.2251,-3.0645 -2.4552,-0.2369 -4.5706,0.3827 -6.4274,1.6544 -2.3872,1.635 -3.3784,4.9096 -6.051,7.7044 0.5459,-2.8076 2.9124,-6.9516 1.6378,-8.4229 -1.842,0.6698 -3.3515,1.9849 -4.6095,3.7871 -1.6366,2.3444 -1.6086,6.5204 -3.8134,9.1592 1.4437,-3.4165 1.4444,-6.9001 3.2325,-9.9292 1.0879,-1.8429 3.3812,-3.5464 4.4885,-5.0448 -2.4341,0.4314 -4.5431,1.4814 -6.315,3.1728 -1.7299,1.6513 -0.6979,5.9864 -4.2137,6.8099 1.5668,-1.9527 1.8533,-4.5883 2.9031,-6.833 0.6955,-1.487 1.9211,-2.6456 2.2443,-4.3976 -2.3636,0.6907 -4.1679,2.7247 -6.0052,4.6794 1.3694,-2.1143 2.445,-4.2019 2.1057,-6.1612 -2.5524,1.3822 -4.8017,3.4854 -6.9411,5.8493 1.3317,-2.6257 3.7452,-4.975 5.6932,-6.7851 -1.4351,-1.4469 -6.3758,2.8972 -9.5927,2.5736 3.4516,-0.6817 4.8236,-3.2168 7.472,-3.7722 1.3872,-0.2909 2.7739,-0.3842 4.0914,-0.2717 0.6938,-1.2798 1.8586,-2.9833 3.3327,-3.7551 -5.3034,-0.3638 -9.9452,-2.9845 -15.91,-1.0918 3.4822,-2.4328 11.2767,-0.2937 17.3918,-1.1699 -2.9434,-2.3573 -6.6836,-3.0575 -10.9186,-2.7296 3.1217,-1.2377 6.3153,-0.9867 9.4082,-0.6653 2.9315,0.3047 5.9458,0.1143 8.6854,-0.8945 -4.134,-0.0915 -6.8498,-2.3615 -10.1973,-2.4369 -3.0478,-0.0686 -5.9544,0.7484 -8.9882,2.1249 1.7113,-1.8197 6.8756,-3.6422 10.5266,-2.8993 4.7833,0.9733 13.0779,4.2672 13.2603,0.3257 -4.328,-1.1936 -7.566,-1.1756 -11.06,-2.5958 -4.7885,-1.9463 -5.8686,-7.0777 -13.5848,-8.0888 4.7223,-0.0199 9.5354,0.6157 13.8511,1.6962 3.6249,0.9073 6.6042,3.3975 9.5943,3.467 2.9769,0.0692 5.5864,-1.0922 7.4255,-2.1766 1.8809,-1.109 3.0386,-2.9521 3.2107,-5.7943 -2.8623,3.2678 -4.4802,5.8546 -7.0348,6.3399 -1.6221,0.3081 -2.8414,-0.4963 -4.6184,-1.3916 -1.2969,-0.6535 -2.6335,-1.381 -4.4907,-2.3746 2.7599,-0.294 6.2548,3.1683 8.8167,2.6741 3.1913,-0.6154 5.31,-5.3299 7.11,-7.3514 1.4752,-1.6567 2.2818,-3.9898 2.089,-7.3332 -0.5404,-0.3517 -1.7243,1.0113 -3.0416,2.7297 1.3502,-2.5242 2.8925,-4.9869 5.5372,-7.0971 0.6777,-0.7567 1.0357,-1.4782 1.2479,-2.1837 -1.6776,0.0854 -2.7897,0.777 -3.7435,1.6378 2.704,-3.4248 5.5402,-6.7635 9.2807,-9.5148 -3.109,0.5138 -5.7537,2.8983 -8.3449,5.5373 3.01,-4.2317 6.4113,-8.214 11.6985,-10.9966 -1.4297,-0.4594 -2.8593,0.1967 -4.2894,0.7019 1.7379,-1.3586 4.1359,-2.408 6.2077,-3.5064 7.0729,-3.7499 14.1829,-6.4932 21.4007,-6.3203 3.0478,0.7291 4.0494,-1.4306 5.7629,-1.2118 1.5116,0.1929 2.8504,0.9049 3.9858,2.2257 6.8377,-4.9042 12.8823,-9.1435 19.0377,-10.653 5.604,-1.3742 11.042,-0.9699 16.2917,1.4502 8.8583,-0.1857 20.2331,3.1837 30.5803,6.4085 5.5869,1.7412 11.536,3.919 19.4112,1.3125 1.304,-2.4014 3.053,-4.1131 5.3311,-5.0043 1.6624,-0.6504 2.5028,0.6467 5.8654,-0.5902z"/> </g> </svg>