<?xml version="1.0" encoding="iso-8859-1"?>
<!-- Generator: Adobe Illustrator 19.0.0, SVG Export Plug-In . SVG Version: 6.00 Build 0)  -->
<svg version="1.1" id="Layer_1" xmlns="http://www.w3.org/2000/svg" xmlns:xlink="http://www.w3.org/1999/xlink" x="0px" y="0px"
	 viewBox="0 0 511.998 511.998" style="enable-background:new 0 0 511.998 511.998;" xml:space="preserve">
<g>
	<path style="fill:#A2C9ED;" d="M317.792,182.092v-76.164H194.206v76.164c0,24.002-12.164,45.965-31.576,60.089
		c-39.715,28.884-65.527,75.714-65.527,128.574c0,61.581,35.098,114.865,86.316,141.241H328.58
		c51.218-26.377,86.316-79.66,86.316-141.241c0-52.86-25.812-99.69-65.527-128.574C329.957,228.057,317.792,206.094,317.792,182.092
		"/>
	<path style="fill:#47E35D;" d="M264.827,335.341c-39.45-47.996-120.002-45.683-158.897,0.106l-6.559,8.748
		c-1.457,8.642-2.269,17.505-2.269,26.562c0,61.581,35.098,114.865,86.316,141.241H328.58
		c51.218-26.377,86.316-79.66,86.316-141.241c0-11.026-1.183-21.769-3.319-32.159l-5.508-3.151
		C360.279,384.272,306.202,380.582,264.827,335.341"/>
	<path style="fill:#7FABDA;" d="M336.913,105.931H175.085c-4.07,0-7.362-3.293-7.362-7.362V77.983c0-4.07,3.293-7.362,7.362-7.362
		h161.827c4.07,0,7.362,3.293,7.362,7.362v20.586C344.275,102.638,340.982,105.931,336.913,105.931"/>
	<path style="fill:#B88353;" d="M317.792,70.621H194.206V6.965c0-3.849,3.116-6.965,6.965-6.965h109.656
		c3.849,0,6.965,3.116,6.965,6.965V70.621z"/>
	<g>
		<path style="fill:#8C5D37;" d="M317.792,42.184c-4.696-4.228-10.84-6.877-17.655-6.877c-14.627,0-26.483,11.864-26.483,26.483
			c0,3.116,0.636,6.056,1.624,8.828h42.514V42.184z"/>
		<path style="fill:#8C5D37;" d="M211.861,44.138c14.627,0,26.483-11.855,26.483-26.483c0-6.815-2.648-12.959-6.877-17.655h-30.296
			c-3.849,0-6.965,3.116-6.965,6.965v30.296C198.902,41.49,205.046,44.138,211.861,44.138"/>
	</g>
	<g>
		<path style="fill:#26A832;" d="M255.999,370.759c0,4.873-3.955,8.828-8.828,8.828c-4.873,0-8.828-3.955-8.828-8.828
			c0-4.873,3.955-8.828,8.828-8.828C252.044,361.931,255.999,365.886,255.999,370.759"/>
		<path style="fill:#26A832;" d="M220.689,467.862c0,4.873-3.955,8.828-8.828,8.828c-4.873,0-8.828-3.955-8.828-8.828
			c0-4.873,3.955-8.828,8.828-8.828C216.734,459.034,220.689,462.989,220.689,467.862"/>
		<path style="fill:#26A832;" d="M176.922,406.069h-18.397c-4.67,0-8.457-3.787-8.457-8.457v-18.397c0-4.67,3.787-8.457,8.457-8.457
			h18.397c4.67,0,8.457,3.787,8.457,8.457v18.397C185.379,402.282,181.592,406.069,176.922,406.069"/>
		<path style="fill:#26A832;" d="M318.164,459.034h-18.397c-4.67,0-8.457-3.787-8.457-8.457v-18.397c0-4.67,3.787-8.457,8.457-8.457
			h18.397c4.67,0,8.457,3.787,8.457,8.457v18.397C326.621,455.247,322.834,459.034,318.164,459.034"/>
	</g>
</g>
<g>
</g>
<g>
</g>
<g>
</g>
<g>
</g>
<g>
</g>
<g>
</g>
<g>
</g>
<g>
</g>
<g>
</g>
<g>
</g>
<g>
</g>
<g>
</g>
<g>
</g>
<g>
</g>
<g>
</g>
</svg>
