<?xml version="1.0" encoding="iso-8859-1"?>
<!-- Generator: Adobe Illustrator 19.0.0, SVG Export Plug-In . SVG Version: 6.00 Build 0)  -->
<svg version="1.1" id="Layer_1" xmlns="http://www.w3.org/2000/svg" xmlns:xlink="http://www.w3.org/1999/xlink" x="0px" y="0px"
	 viewBox="0 0 511.672 511.672" style="enable-background:new 0 0 511.672 511.672;" xml:space="preserve">
<g>
	<rect x="245.176" y="12.273" style="fill:#723F3F;" width="21.33" height="487.11"/>
	<polygon style="fill:#723F3F;" points="368.389,472.088 124.826,50.233 143.283,39.568 386.846,461.423 	"/>
	<polygon style="fill:#723F3F;" points="461.44,386.846 39.568,143.283 50.249,124.811 472.088,368.373 	"/>
	<rect x="12.274" y="245.176" style="fill:#723F3F;" width="487.12" height="21.314"/>
	<polygon style="fill:#723F3F;" points="50.233,386.846 39.568,368.373 461.44,124.811 472.088,143.283 	"/>
	<polygon style="fill:#723F3F;" points="143.283,472.088 124.826,461.423 368.389,39.568 386.846,50.233 	"/>
</g>
<g>
	<path style="fill:#A85D5D;" d="M255.836,0C114.552,0,0,114.536,0,255.836C0,397.12,114.552,511.672,255.836,511.672
		c141.301,0,255.836-114.552,255.836-255.836C511.672,114.536,397.137,0,255.836,0z M421.668,421.651
		c-21.549,21.549-46.627,38.46-74.562,50.265c-28.888,12.227-59.602,18.426-91.27,18.426c-31.667,0-62.382-6.199-91.285-18.426
		c-27.919-11.805-52.998-28.716-74.546-50.265c-21.549-21.533-38.444-46.626-50.265-74.546c-12.227-28.903-18.41-59.603-18.41-91.27
		c0-31.683,6.184-62.382,18.41-91.285c11.82-27.92,28.716-53.013,50.265-74.546c21.548-21.548,46.626-38.459,74.546-50.28
		c28.903-12.211,59.618-18.41,91.285-18.41c31.668,0,62.382,6.199,91.27,18.41c27.936,11.821,53.014,28.732,74.562,50.28
		c21.549,21.533,38.459,46.626,50.264,74.546c12.227,28.903,18.426,59.603,18.426,91.285c0,31.667-6.199,62.366-18.426,91.27
		C460.127,375.025,443.217,400.118,421.668,421.651z"/>
	<path style="fill:#A85D5D;" d="M309.13,255.836c0,29.434-23.859,53.294-53.294,53.294c-29.434,0-53.31-23.86-53.31-53.294
		c0-29.45,23.875-53.31,53.31-53.31S309.13,226.386,309.13,255.836z"/>
</g>
<path style="fill:#434A54;" d="M266.501,255.836c0,5.871-4.778,10.649-10.665,10.649s-10.665-4.778-10.665-10.649
	c0-5.902,4.778-10.665,10.665-10.665S266.501,249.934,266.501,255.836z"/>
<g>
</g>
<g>
</g>
<g>
</g>
<g>
</g>
<g>
</g>
<g>
</g>
<g>
</g>
<g>
</g>
<g>
</g>
<g>
</g>
<g>
</g>
<g>
</g>
<g>
</g>
<g>
</g>
<g>
</g>
</svg>
