<?xml version="1.0" encoding="iso-8859-1"?>
<!-- Generator: Adobe Illustrator 19.0.0, SVG Export Plug-In . SVG Version: 6.00 Build 0)  -->
<svg xmlns="http://www.w3.org/2000/svg" xmlns:xlink="http://www.w3.org/1999/xlink" version="1.1" id="Layer_1" x="0px" y="0px" viewBox="0 0 434.559 434.559" style="enable-background:new 0 0 434.559 434.559;" xml:space="preserve" width="512" height="512">
<g>
	<circle style="fill:#E8E8E8;" cx="217.279" cy="217.279" r="209.779"/>
	<path style="fill:#C3C6C8;" d="M265.969,284.899l31.98,43.38l-30.1,92.62l0.01,0.02c-16.2,4.01-33.14,6.14-50.58,6.14   s-34.38-2.13-50.58-6.14l0.01-0.02l-30.1-92.62l31.98-43.38H265.969z"/>
	<path style="fill:#D5D6D8;" d="M426.52,232.129h0.02c-2.46,35.14-13.57,67.9-31.21,96.15h-0.01h-97.37l-31.98-43.38l30.1-92.62   l51.66-17.39L426.52,232.129z"/>
	<path style="fill:#C3C6C8;" d="M217.279,80.039v55l-78.79,57.24l-51.66-17.39l-30.1-92.62l-0.01-0.01   c21.84-25.94,49.85-46.52,81.77-59.46L217.279,80.039z"/>
	<polygon style="fill:#5C6670;" points="168.587,284.899 138.493,192.28 217.279,135.039 296.065,192.28 265.972,284.899  "/>
	<path style="fill:#5C6670;" d="M217.279,7.5c-27.861,0-54.447,5.445-78.77,15.307l78.77,57.23l78.77-57.23   C271.727,12.945,245.141,7.5,217.279,7.5z"/>
	<path style="fill:#454F58;" d="M56.732,82.27l-0.001,0C26.017,118.757,7.5,165.852,7.5,217.279c0,4.993,0.187,9.941,0.53,14.847   l0.01,0.004l78.786-57.242L56.732,82.27z"/>
	<path style="fill:#454F58;" d="M136.613,328.279H39.257c28.455,45.539,73.889,79.368,127.446,92.627l0.003-0.008L136.613,328.279z"/>
	<path style="fill:#5C6670;" d="M377.826,82.27l0.001,0c30.715,36.487,49.231,83.583,49.231,135.01c0,4.993-0.186,9.941-0.53,14.847   l-0.01,0.004l-78.786-57.242L377.826,82.27z"/>
	<path style="fill:#454F58;" d="M297.946,328.279h97.355c-28.455,45.539-73.889,79.368-127.446,92.627l-0.003-0.008L297.946,328.279   z"/>
	<path d="M370.919,63.64C329.88,22.601,275.317,0,217.279,0S104.678,22.601,63.64,63.64C22.601,104.678,0,159.242,0,217.279   s22.601,112.601,63.64,153.64c41.038,41.039,95.602,63.64,153.64,63.64s112.601-22.601,153.64-63.64   c41.039-41.039,63.64-95.602,63.64-153.64S411.957,104.678,370.919,63.64z M369.359,84.059l-27.594,84.925l-44.423,14.953   l-72.563-52.721V83.857l72.222-52.472C324.91,43.401,349.592,61.521,369.359,84.059z M287.249,195.145l-26.726,82.254h-86.486   l-26.726-82.254l69.969-50.836L287.249,195.145z M217.279,15c21.966,0,43.12,3.533,62.939,10.038l-62.939,45.728L154.34,25.038   C174.159,18.533,195.313,15,217.279,15z M137.558,31.386l72.222,52.472v47.359l-72.563,52.721l-44.423-14.953L65.2,84.059   C84.967,61.521,109.648,43.401,137.558,31.386z M15,217.279c0-44.545,14.485-85.765,38.977-119.221l24.033,73.966l-63.002,45.774   C15.006,217.625,15,217.453,15,217.279z M15.85,235.727l72.252-52.495l44.423,14.953l27.737,85.367l-27.439,37.228H43.551   C28.413,295.465,18.653,266.587,15.85,235.727z M53.45,335.779h77.713l24.053,74.026C113.931,396.465,78.411,370.193,53.45,335.779   z M217.279,419.559c-15.372,0-30.346-1.732-44.746-4.997l-27.597-84.935l27.439-37.228h89.807l27.44,37.228l-27.597,84.935   C247.626,417.826,232.651,419.559,217.279,419.559z M279.342,409.806l24.053-74.026h77.713   C356.147,370.193,320.628,396.465,279.342,409.806z M391.008,320.779h-89.273l-27.439-37.228l27.737-85.367l44.423-14.953   l72.252,52.495C415.905,266.587,406.146,295.465,391.008,320.779z M356.549,172.024l24.033-73.966   c24.492,33.456,38.977,74.676,38.977,119.221c0,0.173-0.006,0.346-0.007,0.519L356.549,172.024z"/>
</g>















</svg>
